<?xml version="1.0" standalone="no"?>
<!DOCTYPE svg PUBLIC "-//W3C//DTD SVG 20010904//EN"
 "http://www.w3.org/TR/2001/REC-SVG-20010904/DTD/svg10.dtd">
<svg version="1.0" xmlns="http://www.w3.org/2000/svg"
 width="260.000000pt" height="260.000000pt" viewBox="0 0 260.000000 260.000000"
 preserveAspectRatio="xMidYMid meet">
<metadata>
Created by potrace 1.14, written by Peter Selinger 2001-2017
</metadata>
<g transform="translate(0.000000,260.000000) scale(0.100000,-0.100000)"
fill="#000000" stroke="none">
<path d="M0 1300 l0 -1300 1300 0 1300 0 0 1300 0 1300 -1300 0 -1300 0 0
-1300z m1264 886 c47 -20 80 -59 130 -156 44 -85 161 -417 191 -540 17 -73 86
-221 173 -373 161 -281 198 -398 154 -489 -26 -53 -66 -78 -126 -78 -36 0 -52
6 -80 30 -35 31 -49 62 -61 135 -4 22 -28 83 -53 135 l-47 95 -55 8 c-51 8
-158 6 -552 -9 l-157 -6 -21 -56 c-43 -113 -121 -253 -154 -273 -62 -38 -151
-17 -182 44 -30 57 -22 103 39 233 30 65 65 155 76 199 23 88 82 259 107 308
9 18 29 48 44 67 15 19 48 78 72 130 24 52 75 139 112 192 37 54 79 126 93
160 56 138 107 207 178 239 48 22 75 23 119 5z"/>
<path d="M1117 1660 c-43 -65 -94 -153 -113 -195 -19 -42 -57 -110 -85 -152
-27 -42 -48 -81 -46 -87 4 -12 62 -12 330 -1 175 8 179 8 173 29 -3 12 -17 57
-31 101 -15 44 -51 158 -82 253 -31 94 -58 172 -62 171 -3 0 -41 -54 -84 -119z"/>
</g>
</svg>
